<?xml version="1.0" encoding="iso-8859-1"?>
<!-- Generator: Adobe Illustrator 19.0.0, SVG Export Plug-In . SVG Version: 6.00 Build 0)  -->
<svg version="1.1" id="Layer_1" xmlns="http://www.w3.org/2000/svg" xmlns:xlink="http://www.w3.org/1999/xlink" x="0px" y="0px"
	 viewBox="0 0 512 512" style="enable-background:new 0 0 512 512;" xml:space="preserve">
<circle style="fill:#324A5E;" cx="256" cy="256" r="256"/>
<path style="fill:#2B3B4E;" d="M189.368,340.494l-9.506,37.616l-10.764,23.192l109.678,109.678
	c115.379-10.174,208.781-96.875,229.105-209.037L326.553,120.613L140.703,282.822l0,0l104.853,104.853l-7.646,1.362L189.368,340.494
	z"/>
<path style="fill:#FFFFFF;" d="M336.927,300.439c33.852,0,61.295-27.443,61.295-61.295c0-28.577-19.558-52.588-46.02-59.375
	c0.016-0.64,0.048-1.276,0.048-1.92c0-42.315-34.302-76.617-76.617-76.617s-76.617,34.302-76.617,76.617
	c0,0.652,0.033,1.296,0.05,1.945c-4.913-1.269-10.064-1.945-15.372-1.945c-33.854,0.002-61.297,27.443-61.297,61.295
	s27.443,61.295,61.295,61.295H336.927z"/>
<path style="fill:#E6F3FF;" d="M352.203,179.769c0.016-0.64,0.048-1.276,0.048-1.92c0-42.315-34.302-76.617-76.617-76.617
	c-5.148,0-10.173,0.517-15.036,1.484v197.723h76.329c33.852,0,61.295-27.443,61.295-61.295
	C398.222,210.566,378.664,186.558,352.203,179.769z"/>
<polygon style="fill:#FD8469;" points="331.252,340.494 331.252,381.033 189.368,381.033 189.368,340.494 169.098,340.494 
	169.098,401.303 351.522,401.303 351.522,340.494 "/>
<polygon style="fill:#FC6F58;" points="351.522,340.494 331.252,340.494 331.252,381.033 260.598,381.033 260.598,401.303 
	351.522,401.303 "/>
<polygon style="fill:#31BAFD;" points="304.078,308.007 270.653,341.43 270.653,247.58 249.966,247.58 249.966,341.428 
	216.543,308.005 201.914,322.631 260.31,381.028 318.704,322.632 "/>
<polygon style="fill:#2B9ED8;" points="304.078,308.007 270.653,341.43 270.653,247.58 260.598,247.58 260.598,380.74 
	318.704,322.632 "/>
<g>
</g>
<g>
</g>
<g>
</g>
<g>
</g>
<g>
</g>
<g>
</g>
<g>
</g>
<g>
</g>
<g>
</g>
<g>
</g>
<g>
</g>
<g>
</g>
<g>
</g>
<g>
</g>
<g>
</g>
</svg>
