<?xml version="1.0" encoding="UTF-8" standalone="no"?>
<!-- Generator: Adobe Illustrator 19.0.0, SVG Export Plug-In . SVG Version: 6.00 Build 0)  -->

<svg
   xmlns:dc="http://purl.org/dc/elements/1.1/"
   xmlns:cc="http://creativecommons.org/ns#"
   xmlns:rdf="http://www.w3.org/1999/02/22-rdf-syntax-ns#"
   xmlns:svg="http://www.w3.org/2000/svg"
   xmlns="http://www.w3.org/2000/svg"
   xmlns:sodipodi="http://sodipodi.sourceforge.net/DTD/sodipodi-0.dtd"
   xmlns:inkscape="http://www.inkscape.org/namespaces/inkscape"
   version="1.1"
   id="Layer_1"
   x="0px"
   y="0px"
   viewBox="0 0 275.82501 300.07101"
   xml:space="preserve"
   inkscape:version="0.91 r13725"
   sodipodi:docname="downwards-no-circle.svg"
   width="275.82501"
   height="300.07101"><metadata
     id="metadata53"><rdf:RDF><cc:Work
         rdf:about=""><dc:format>image/svg+xml</dc:format><dc:type
           rdf:resource="http://purl.org/dc/dcmitype/StillImage" /><dc:title></dc:title></cc:Work></rdf:RDF></metadata><defs
     id="defs51" /><sodipodi:namedview
     pagecolor="#ffffff"
     bordercolor="#666666"
     borderopacity="1"
     objecttolerance="10"
     gridtolerance="10"
     guidetolerance="10"
     inkscape:pageopacity="0"
     inkscape:pageshadow="2"
     inkscape:window-width="1366"
     inkscape:window-height="710"
     id="namedview49"
     showgrid="false"
     fit-margin-top="0"
     fit-margin-left="0"
     fit-margin-right="0"
     fit-margin-bottom="0"
     inkscape:zoom="0.4609375"
     inkscape:cx="133.603"
     inkscape:cy="145.303"
     inkscape:window-x="0"
     inkscape:window-y="30"
     inkscape:window-maximized="1"
     inkscape:current-layer="Layer_1" /><path
     style="fill:#ffffff"
     d="m 214.53,199.207 c 33.852,0 61.295,-27.443 61.295,-61.295 0,-28.577 -19.558,-52.588 -46.02,-59.375 0.016,-0.64 0.048,-1.276 0.048,-1.92 C 229.853,34.302 195.551,0 153.236,0 110.921,0 76.619,34.302 76.619,76.617 c 0,0.652 0.033,1.296 0.05,1.945 C 71.756,77.293 66.605,76.617 61.297,76.617 27.443,76.619 0,104.06 0,137.912 c 0,33.852 27.443,61.295 61.295,61.295 l 153.235,0 z"
     id="path7"
     inkscape:connector-curvature="0" /><path
     style="fill:#e6f3ff"
     d="m 229.806,78.537 c 0.016,-0.64 0.048,-1.276 0.048,-1.92 C 229.854,34.302 195.552,0 153.237,0 148.089,0 143.064,0.517 138.201,1.484 l 0,197.723 76.329,0 c 33.852,0 61.295,-27.443 61.295,-61.295 0,-28.578 -19.558,-52.586 -46.019,-59.375 z"
     id="path9"
     inkscape:connector-curvature="0" /><polygon
     style="fill:#fd8469"
     points="189.368,340.494 169.098,340.494 169.098,401.303 351.522,401.303 351.522,340.494 331.252,340.494 331.252,381.033 189.368,381.033 "
     id="polygon11"
     transform="translate(-122.397,-101.232)" /><polygon
     style="fill:#fc6f58"
     points="260.598,381.033 260.598,401.303 351.522,401.303 351.522,340.494 331.252,340.494 331.252,381.033 "
     id="polygon13"
     transform="translate(-122.397,-101.232)" /><polygon
     style="fill:#31bafd"
     points="249.966,247.58 249.966,341.428 216.543,308.005 201.914,322.631 260.31,381.028 318.704,322.632 304.078,308.007 270.653,341.43 270.653,247.58 "
     id="polygon15"
     transform="translate(-122.397,-101.232)" /><polygon
     style="fill:#2b9ed8"
     points="260.598,247.58 260.598,380.74 318.704,322.632 304.078,308.007 270.653,341.43 270.653,247.58 "
     id="polygon17"
     transform="translate(-122.397,-101.232)" /><g
     id="g19"
     transform="translate(-122.397,-101.232)" /><g
     id="g21"
     transform="translate(-122.397,-101.232)" /><g
     id="g23"
     transform="translate(-122.397,-101.232)" /><g
     id="g25"
     transform="translate(-122.397,-101.232)" /><g
     id="g27"
     transform="translate(-122.397,-101.232)" /><g
     id="g29"
     transform="translate(-122.397,-101.232)" /><g
     id="g31"
     transform="translate(-122.397,-101.232)" /><g
     id="g33"
     transform="translate(-122.397,-101.232)" /><g
     id="g35"
     transform="translate(-122.397,-101.232)" /><g
     id="g37"
     transform="translate(-122.397,-101.232)" /><g
     id="g39"
     transform="translate(-122.397,-101.232)" /><g
     id="g41"
     transform="translate(-122.397,-101.232)" /><g
     id="g43"
     transform="translate(-122.397,-101.232)" /><g
     id="g45"
     transform="translate(-122.397,-101.232)" /><g
     id="g47"
     transform="translate(-122.397,-101.232)" /></svg>